<mxfile modified="2023-06-08T15:43:19.205Z" host="app.diagrams.net" agent="Mozilla/5.0 (Macintosh; Intel Mac OS X 10_15_7) AppleWebKit/537.36 (KHTML, like Gecko) Chrome/114.0.0.0 Safari/537.36" etag="xt1-zJgY7CQaLF8tuco1" version="21.3.6" type="device">
  <diagram id="Ht1M8jgEwFfnCIfOTk4-" name="Page-1">
    <mxGraphModel dx="1590" dy="1033" grid="1" gridSize="7" guides="1" tooltips="1" connect="1" arrows="1" fold="1" page="1" pageScale="1" pageWidth="1169" pageHeight="827" background="none" math="0" shadow="0">
      <root>
        <mxCell id="0" />
        <mxCell id="1" parent="0" />
        <mxCell id="GrUjXysrTz4pMU6UMyg--17" value="us-east-1a" style="fillColor=none;strokeColor=#147EBA;dashed=1;verticalAlign=top;fontStyle=0;fontColor=#147EBA;whiteSpace=wrap;html=1;movable=1;resizable=1;rotatable=1;deletable=1;editable=1;locked=0;connectable=1;" vertex="1" parent="1">
          <mxGeometry x="271" y="127" width="381" height="725" as="geometry" />
        </mxCell>
        <mxCell id="GrUjXysrTz4pMU6UMyg--24" value="Public subnet" style="points=[[0,0],[0.25,0],[0.5,0],[0.75,0],[1,0],[1,0.25],[1,0.5],[1,0.75],[1,1],[0.75,1],[0.5,1],[0.25,1],[0,1],[0,0.75],[0,0.5],[0,0.25]];outlineConnect=0;gradientColor=none;html=1;whiteSpace=wrap;fontSize=12;fontStyle=0;container=1;pointerEvents=0;collapsible=0;recursiveResize=0;shape=mxgraph.aws4.group;grIcon=mxgraph.aws4.group_security_group;grStroke=0;strokeColor=#248814;fillColor=#E9F3E6;verticalAlign=top;align=left;spacingLeft=30;fontColor=#248814;dashed=0;" vertex="1" parent="1">
          <mxGeometry x="280" y="196" width="364" height="315" as="geometry" />
        </mxCell>
        <mxCell id="GrUjXysrTz4pMU6UMyg--7" value="" style="points=[[0,0],[0.25,0],[0.5,0],[0.75,0],[1,0],[1,0.25],[1,0.5],[1,0.75],[1,1],[0.75,1],[0.5,1],[0.25,1],[0,1],[0,0.75],[0,0.5],[0,0.25]];outlineConnect=0;html=1;whiteSpace=wrap;fontSize=12;fontStyle=0;container=1;pointerEvents=0;collapsible=0;recursiveResize=0;shape=mxgraph.aws4.group;grIcon=mxgraph.aws4.group_aws_cloud_alt;fillColor=none;verticalAlign=top;align=left;spacingLeft=30;dashed=0;perimeterSpacing=0;labelBackgroundColor=none;movable=1;resizable=1;rotatable=1;deletable=1;editable=1;locked=0;connectable=1;" vertex="1" parent="1">
          <mxGeometry x="6.5" y="28" width="1449.5" height="910" as="geometry" />
        </mxCell>
        <mxCell id="GrUjXysrTz4pMU6UMyg--114" value="" style="outlineConnect=0;dashed=0;verticalLabelPosition=bottom;verticalAlign=top;align=center;html=1;shape=mxgraph.aws3.iam;fillColor=#759C3E;gradientColor=none;" vertex="1" parent="GrUjXysrTz4pMU6UMyg--7">
          <mxGeometry x="1246.5" y="241" width="42" height="81" as="geometry" />
        </mxCell>
        <mxCell id="GrUjXysrTz4pMU6UMyg--115" value="" style="outlineConnect=0;dashed=0;verticalLabelPosition=bottom;verticalAlign=top;align=center;html=1;shape=mxgraph.aws3.iam;fillColor=#759C3E;gradientColor=none;" vertex="1" parent="GrUjXysrTz4pMU6UMyg--7">
          <mxGeometry x="84.5" y="241" width="42" height="81" as="geometry" />
        </mxCell>
        <mxCell id="GrUjXysrTz4pMU6UMyg--116" value="" style="outlineConnect=0;dashed=0;verticalLabelPosition=bottom;verticalAlign=top;align=center;html=1;shape=mxgraph.aws3.policy;fillColor=#5294CF;gradientColor=none;" vertex="1" parent="GrUjXysrTz4pMU6UMyg--7">
          <mxGeometry x="77.75" y="378" width="55.5" height="90" as="geometry" />
        </mxCell>
        <mxCell id="GrUjXysrTz4pMU6UMyg--117" value="EC2 full access" style="text;html=1;strokeColor=none;fillColor=none;align=center;verticalAlign=middle;whiteSpace=wrap;rounded=0;" vertex="1" parent="GrUjXysrTz4pMU6UMyg--7">
          <mxGeometry x="56.5" y="468" width="91.25" height="30" as="geometry" />
        </mxCell>
        <mxCell id="GrUjXysrTz4pMU6UMyg--118" value="" style="outlineConnect=0;dashed=0;verticalLabelPosition=bottom;verticalAlign=top;align=center;html=1;shape=mxgraph.aws3.policy;fillColor=#5294CF;gradientColor=none;" vertex="1" parent="GrUjXysrTz4pMU6UMyg--7">
          <mxGeometry x="1246.5" y="378" width="55.5" height="90" as="geometry" />
        </mxCell>
        <mxCell id="GrUjXysrTz4pMU6UMyg--120" value="" style="outlineConnect=0;dashed=0;verticalLabelPosition=bottom;verticalAlign=top;align=center;html=1;shape=mxgraph.aws3.policy;fillColor=#5294CF;gradientColor=none;" vertex="1" parent="GrUjXysrTz4pMU6UMyg--7">
          <mxGeometry x="1365.5" y="229" width="55.5" height="90" as="geometry" />
        </mxCell>
        <mxCell id="GrUjXysrTz4pMU6UMyg--119" value="" style="outlineConnect=0;dashed=0;verticalLabelPosition=bottom;verticalAlign=top;align=center;html=1;shape=mxgraph.aws3.policy;fillColor=#5294CF;gradientColor=none;" vertex="1" parent="GrUjXysrTz4pMU6UMyg--7">
          <mxGeometry x="1246.5" y="105" width="55.5" height="90" as="geometry" />
        </mxCell>
        <mxCell id="GrUjXysrTz4pMU6UMyg--121" value="EC2 Full Access" style="text;html=1;strokeColor=none;fillColor=none;align=center;verticalAlign=middle;whiteSpace=wrap;rounded=0;" vertex="1" parent="GrUjXysrTz4pMU6UMyg--7">
          <mxGeometry x="1228.6200000000001" y="462" width="91.25" height="30" as="geometry" />
        </mxCell>
        <mxCell id="GrUjXysrTz4pMU6UMyg--122" value="ECR Full Access" style="text;html=1;strokeColor=none;fillColor=none;align=center;verticalAlign=middle;whiteSpace=wrap;rounded=0;" vertex="1" parent="GrUjXysrTz4pMU6UMyg--7">
          <mxGeometry x="1345.82" y="315" width="94.87" height="30" as="geometry" />
        </mxCell>
        <mxCell id="GrUjXysrTz4pMU6UMyg--123" value="S3 Full Access" style="text;html=1;strokeColor=none;fillColor=none;align=center;verticalAlign=middle;whiteSpace=wrap;rounded=0;" vertex="1" parent="GrUjXysrTz4pMU6UMyg--7">
          <mxGeometry x="1228.62" y="84" width="91.25" height="30" as="geometry" />
        </mxCell>
        <mxCell id="GrUjXysrTz4pMU6UMyg--124" value="IAM Role Ansible" style="text;html=1;strokeColor=none;fillColor=none;align=center;verticalAlign=middle;whiteSpace=wrap;rounded=0;" vertex="1" parent="GrUjXysrTz4pMU6UMyg--7">
          <mxGeometry x="1225" y="217" width="94.87" height="30" as="geometry" />
        </mxCell>
        <mxCell id="GrUjXysrTz4pMU6UMyg--125" value="IAM Role Jenkins" style="text;html=1;strokeColor=none;fillColor=none;align=center;verticalAlign=middle;whiteSpace=wrap;rounded=0;" vertex="1" parent="GrUjXysrTz4pMU6UMyg--7">
          <mxGeometry x="56" y="217" width="102.37" height="30" as="geometry" />
        </mxCell>
        <mxCell id="GrUjXysrTz4pMU6UMyg--127" value="" style="edgeStyle=orthogonalEdgeStyle;html=1;endArrow=none;elbow=vertical;startArrow=block;startFill=1;strokeColor=#545B64;rounded=0;" edge="1" parent="GrUjXysrTz4pMU6UMyg--7">
          <mxGeometry width="100" relative="1" as="geometry">
            <mxPoint x="1288.5" y="266" as="sourcePoint" />
            <mxPoint x="1365.5" y="266" as="targetPoint" />
          </mxGeometry>
        </mxCell>
        <mxCell id="GrUjXysrTz4pMU6UMyg--130" value="" style="edgeStyle=orthogonalEdgeStyle;html=1;endArrow=none;elbow=vertical;startArrow=block;startFill=1;strokeColor=#545B64;rounded=0;entryX=0.5;entryY=0;entryDx=0;entryDy=0;entryPerimeter=0;" edge="1" parent="GrUjXysrTz4pMU6UMyg--7" source="GrUjXysrTz4pMU6UMyg--114" target="GrUjXysrTz4pMU6UMyg--118">
          <mxGeometry width="100" relative="1" as="geometry">
            <mxPoint x="1274.5" y="308" as="sourcePoint" />
            <mxPoint x="1374.5" y="308" as="targetPoint" />
            <Array as="points">
              <mxPoint x="1345" y="287" />
              <mxPoint x="1345" y="344" />
              <mxPoint x="1274" y="344" />
            </Array>
          </mxGeometry>
        </mxCell>
        <mxCell id="GrUjXysrTz4pMU6UMyg--132" value="" style="edgeStyle=orthogonalEdgeStyle;html=1;endArrow=none;elbow=vertical;startArrow=block;startFill=1;strokeColor=#545B64;rounded=0;entryX=0.47;entryY=0.72;entryDx=0;entryDy=0;entryPerimeter=0;" edge="1" parent="GrUjXysrTz4pMU6UMyg--7" target="GrUjXysrTz4pMU6UMyg--119">
          <mxGeometry width="100" relative="1" as="geometry">
            <mxPoint x="1288.5" y="252" as="sourcePoint" />
            <mxPoint x="1388.5" y="252" as="targetPoint" />
            <Array as="points">
              <mxPoint x="1345" y="252" />
              <mxPoint x="1345" y="224" />
              <mxPoint x="1273" y="224" />
            </Array>
          </mxGeometry>
        </mxCell>
        <mxCell id="GrUjXysrTz4pMU6UMyg--133" value="" style="edgeStyle=orthogonalEdgeStyle;html=1;endArrow=none;elbow=vertical;startArrow=block;startFill=1;strokeColor=#545B64;rounded=0;" edge="1" parent="GrUjXysrTz4pMU6UMyg--7" target="GrUjXysrTz4pMU6UMyg--116">
          <mxGeometry width="100" relative="1" as="geometry">
            <mxPoint x="105.5" y="329.57" as="sourcePoint" />
            <mxPoint x="205.5" y="329.57" as="targetPoint" />
          </mxGeometry>
        </mxCell>
        <mxCell id="GrUjXysrTz4pMU6UMyg--135" value="" style="edgeStyle=orthogonalEdgeStyle;html=1;endArrow=block;elbow=vertical;startArrow=none;endFill=1;strokeColor=#545B64;rounded=0;entryX=0;entryY=0.5;entryDx=0;entryDy=0;entryPerimeter=0;" edge="1" parent="GrUjXysrTz4pMU6UMyg--7" target="GrUjXysrTz4pMU6UMyg--98">
          <mxGeometry width="100" relative="1" as="geometry">
            <mxPoint x="119.5" y="287" as="sourcePoint" />
            <mxPoint x="219.5" y="287" as="targetPoint" />
          </mxGeometry>
        </mxCell>
        <mxCell id="GrUjXysrTz4pMU6UMyg--136" value="" style="sketch=0;outlineConnect=0;fontColor=#232F3E;gradientColor=none;fillColor=#3F8624;strokeColor=none;dashed=0;verticalLabelPosition=bottom;verticalAlign=top;align=center;html=1;fontSize=12;fontStyle=0;aspect=fixed;pointerEvents=1;shape=mxgraph.aws4.bucket;" vertex="1" parent="GrUjXysrTz4pMU6UMyg--7">
          <mxGeometry x="987.5" y="35" width="39.42" height="41" as="geometry" />
        </mxCell>
        <mxCell id="GrUjXysrTz4pMU6UMyg--137" value="" style="rounded=1;arcSize=10;dashed=0;fillColor=none;gradientColor=none;strokeWidth=2;" vertex="1" parent="GrUjXysrTz4pMU6UMyg--7">
          <mxGeometry x="1064" y="21" width="83.5" height="72" as="geometry" />
        </mxCell>
        <mxCell id="GrUjXysrTz4pMU6UMyg--138" value="" style="dashed=0;html=1;shape=mxgraph.aws3.corporate_data_center;fillColor=#7D7C7C;gradientColor=none;dashed=0;" vertex="1" parent="GrUjXysrTz4pMU6UMyg--7">
          <mxGeometry x="1057.5" y="21" width="13.5" height="21" as="geometry" />
        </mxCell>
        <mxCell id="GrUjXysrTz4pMU6UMyg--141" value="S3 playbooks" style="text;html=1;strokeColor=none;fillColor=none;align=center;verticalAlign=middle;whiteSpace=wrap;rounded=0;fontSize=9;" vertex="1" parent="GrUjXysrTz4pMU6UMyg--7">
          <mxGeometry x="975.7099999999999" y="16" width="63" height="19" as="geometry" />
        </mxCell>
        <mxCell id="GrUjXysrTz4pMU6UMyg--142" value="playbooks" style="text;html=1;strokeColor=none;fillColor=none;align=center;verticalAlign=middle;whiteSpace=wrap;rounded=0;fontSize=9;" vertex="1" parent="GrUjXysrTz4pMU6UMyg--7">
          <mxGeometry x="1060.1299999999999" width="91.25" height="30" as="geometry" />
        </mxCell>
        <mxCell id="GrUjXysrTz4pMU6UMyg--146" value="" style="edgeStyle=orthogonalEdgeStyle;html=1;endArrow=none;elbow=vertical;startArrow=openThin;startFill=0;strokeColor=#545B64;rounded=0;" edge="1" parent="GrUjXysrTz4pMU6UMyg--7">
          <mxGeometry width="100" relative="1" as="geometry">
            <mxPoint x="1026.92" y="55.05000000000001" as="sourcePoint" />
            <mxPoint x="1064.5" y="56" as="targetPoint" />
          </mxGeometry>
        </mxCell>
        <mxCell id="GrUjXysrTz4pMU6UMyg--70" value="node" style="text;html=1;align=center;verticalAlign=middle;whiteSpace=wrap;rounded=0;fontColor=#fafafa;labelBorderColor=none;" vertex="1" parent="1">
          <mxGeometry x="320" y="679" width="60" height="30" as="geometry" />
        </mxCell>
        <mxCell id="GrUjXysrTz4pMU6UMyg--8" value="" style="points=[[0,0],[0.25,0],[0.5,0],[0.75,0],[1,0],[1,0.25],[1,0.5],[1,0.75],[1,1],[0.75,1],[0.5,1],[0.25,1],[0,1],[0,0.75],[0,0.5],[0,0.25]];outlineConnect=0;gradientColor=none;html=1;whiteSpace=wrap;fontSize=12;fontStyle=0;container=1;pointerEvents=0;collapsible=0;recursiveResize=0;shape=mxgraph.aws4.group;grIcon=mxgraph.aws4.group_vpc;strokeColor=#248814;fillColor=none;verticalAlign=top;align=left;spacingLeft=30;fontColor=#AAB7B8;dashed=0;movable=0;resizable=0;rotatable=0;deletable=0;editable=0;locked=1;connectable=0;" vertex="1" parent="1">
          <mxGeometry x="199" y="155" width="1005" height="679" as="geometry" />
        </mxCell>
        <mxCell id="GrUjXysrTz4pMU6UMyg--16" value="k8svpc" style="text;html=1;strokeColor=none;fillColor=none;align=center;verticalAlign=middle;whiteSpace=wrap;rounded=0;" vertex="1" parent="GrUjXysrTz4pMU6UMyg--8">
          <mxGeometry x="-9" y="18" width="60" height="30" as="geometry" />
        </mxCell>
        <mxCell id="GrUjXysrTz4pMU6UMyg--18" value="us-east-1b" style="fillColor=none;strokeColor=#147EBA;dashed=1;verticalAlign=top;fontStyle=0;fontColor=#147EBA;whiteSpace=wrap;html=1;movable=1;resizable=1;rotatable=1;deletable=1;editable=1;locked=0;connectable=1;" vertex="1" parent="GrUjXysrTz4pMU6UMyg--8">
          <mxGeometry x="603" y="-28" width="391" height="725" as="geometry" />
        </mxCell>
        <mxCell id="GrUjXysrTz4pMU6UMyg--28" value="Public subnet" style="points=[[0,0],[0.25,0],[0.5,0],[0.75,0],[1,0],[1,0.25],[1,0.5],[1,0.75],[1,1],[0.75,1],[0.5,1],[0.25,1],[0,1],[0,0.75],[0,0.5],[0,0.25]];outlineConnect=0;gradientColor=none;html=1;whiteSpace=wrap;fontSize=12;fontStyle=0;container=1;pointerEvents=0;collapsible=0;recursiveResize=0;shape=mxgraph.aws4.group;grIcon=mxgraph.aws4.group_security_group;grStroke=0;strokeColor=#248814;fillColor=#E9F3E6;verticalAlign=top;align=left;spacingLeft=30;fontColor=#248814;dashed=0;movable=0;resizable=0;rotatable=0;deletable=0;editable=0;locked=1;connectable=0;" vertex="1" parent="GrUjXysrTz4pMU6UMyg--8">
          <mxGeometry x="609.5" y="41" width="371" height="315" as="geometry" />
        </mxCell>
        <mxCell id="GrUjXysrTz4pMU6UMyg--29" value="Private subnet" style="points=[[0,0],[0.25,0],[0.5,0],[0.75,0],[1,0],[1,0.25],[1,0.5],[1,0.75],[1,1],[0.75,1],[0.5,1],[0.25,1],[0,1],[0,0.75],[0,0.5],[0,0.25]];outlineConnect=0;gradientColor=none;html=1;whiteSpace=wrap;fontSize=12;fontStyle=0;container=1;pointerEvents=0;collapsible=0;recursiveResize=0;shape=mxgraph.aws4.group;grIcon=mxgraph.aws4.group_security_group;grStroke=0;strokeColor=#147EBA;fillColor=#E6F2F8;verticalAlign=top;align=left;spacingLeft=30;fontColor=#147EBA;dashed=0;" vertex="1" parent="GrUjXysrTz4pMU6UMyg--8">
          <mxGeometry x="81" y="364" width="364" height="308" as="geometry" />
        </mxCell>
        <mxCell id="GrUjXysrTz4pMU6UMyg--36" value="Private subnet" style="points=[[0,0],[0.25,0],[0.5,0],[0.75,0],[1,0],[1,0.25],[1,0.5],[1,0.75],[1,1],[0.75,1],[0.5,1],[0.25,1],[0,1],[0,0.75],[0,0.5],[0,0.25]];outlineConnect=0;gradientColor=none;html=1;whiteSpace=wrap;fontSize=12;fontStyle=0;container=1;pointerEvents=0;collapsible=0;recursiveResize=0;shape=mxgraph.aws4.group;grIcon=mxgraph.aws4.group_security_group;grStroke=0;strokeColor=#147EBA;fillColor=#E6F2F8;verticalAlign=top;align=left;spacingLeft=30;fontColor=#147EBA;dashed=0;" vertex="1" parent="GrUjXysrTz4pMU6UMyg--8">
          <mxGeometry x="613" y="364" width="364" height="308" as="geometry" />
        </mxCell>
        <mxCell id="GrUjXysrTz4pMU6UMyg--40" value="192.168.96.0/19" style="text;html=1;strokeColor=none;fillColor=none;align=center;verticalAlign=middle;whiteSpace=wrap;rounded=0;" vertex="1" parent="GrUjXysrTz4pMU6UMyg--8">
          <mxGeometry x="655" y="55" width="60" height="30" as="geometry" />
        </mxCell>
        <mxCell id="GrUjXysrTz4pMU6UMyg--41" value="" style="sketch=0;outlineConnect=0;fontColor=#232F3E;gradientColor=none;fillColor=#4D27AA;strokeColor=none;dashed=0;verticalLabelPosition=bottom;verticalAlign=top;align=center;html=1;fontSize=12;fontStyle=0;aspect=fixed;pointerEvents=1;shape=mxgraph.aws4.internet_gateway;" vertex="1" parent="GrUjXysrTz4pMU6UMyg--8">
          <mxGeometry x="494" y="62" width="68" height="68" as="geometry" />
        </mxCell>
        <mxCell id="GrUjXysrTz4pMU6UMyg--9" value="192.168.0.0/16" style="text;html=1;strokeColor=none;fillColor=none;align=center;verticalAlign=middle;whiteSpace=wrap;rounded=0;" vertex="1" parent="1">
          <mxGeometry x="685" y="131" width="60" height="30" as="geometry" />
        </mxCell>
        <mxCell id="GrUjXysrTz4pMU6UMyg--20" value="us-east-1" style="text;html=1;strokeColor=none;fillColor=none;align=center;verticalAlign=middle;whiteSpace=wrap;rounded=0;" vertex="1" parent="1">
          <mxGeometry x="182" y="105" width="60" height="30" as="geometry" />
        </mxCell>
        <mxCell id="GrUjXysrTz4pMU6UMyg--46" value="" style="endArrow=none;html=1;rounded=0;" edge="1" parent="1">
          <mxGeometry width="50" height="50" relative="1" as="geometry">
            <mxPoint x="637" y="245" as="sourcePoint" />
            <mxPoint x="694" y="245" as="targetPoint" />
          </mxGeometry>
        </mxCell>
        <mxCell id="GrUjXysrTz4pMU6UMyg--47" value="" style="endArrow=none;html=1;rounded=0;" edge="1" parent="1">
          <mxGeometry width="50" height="50" relative="1" as="geometry">
            <mxPoint x="756" y="245" as="sourcePoint" />
            <mxPoint x="813" y="245" as="targetPoint" />
          </mxGeometry>
        </mxCell>
        <mxCell id="GrUjXysrTz4pMU6UMyg--48" value="" style="sketch=0;points=[[0,0,0],[0.25,0,0],[0.5,0,0],[0.75,0,0],[1,0,0],[0,1,0],[0.25,1,0],[0.5,1,0],[0.75,1,0],[1,1,0],[0,0.25,0],[0,0.5,0],[0,0.75,0],[1,0.25,0],[1,0.5,0],[1,0.75,0]];outlineConnect=0;fontColor=#232F3E;gradientColor=#F78E04;gradientDirection=north;fillColor=#D05C17;strokeColor=#ffffff;dashed=0;verticalLabelPosition=bottom;verticalAlign=top;align=center;html=1;fontSize=12;fontStyle=0;aspect=fixed;shape=mxgraph.aws4.resourceIcon;resIcon=mxgraph.aws4.elastic_load_balancing;" vertex="1" parent="1">
          <mxGeometry x="703.5" y="424.5" width="50" height="50" as="geometry" />
        </mxCell>
        <mxCell id="GrUjXysrTz4pMU6UMyg--49" value="" style="endArrow=none;html=1;rounded=0;" edge="1" parent="1">
          <mxGeometry width="50" height="50" relative="1" as="geometry">
            <mxPoint x="644" y="449.05" as="sourcePoint" />
            <mxPoint x="701" y="449.05" as="targetPoint" />
          </mxGeometry>
        </mxCell>
        <mxCell id="GrUjXysrTz4pMU6UMyg--50" value="" style="endArrow=none;html=1;rounded=0;" edge="1" parent="1">
          <mxGeometry width="50" height="50" relative="1" as="geometry">
            <mxPoint x="756.5" y="449.05" as="sourcePoint" />
            <mxPoint x="805.5" y="449.18" as="targetPoint" />
          </mxGeometry>
        </mxCell>
        <mxCell id="GrUjXysrTz4pMU6UMyg--51" value="Kubernetes ELB" style="text;html=1;strokeColor=none;fillColor=none;align=center;verticalAlign=middle;whiteSpace=wrap;rounded=0;" vertex="1" parent="1">
          <mxGeometry x="696.5" y="474.5" width="60" height="30" as="geometry" />
        </mxCell>
        <mxCell id="GrUjXysrTz4pMU6UMyg--54" value="Internet Gateway" style="text;html=1;strokeColor=none;fillColor=none;align=center;verticalAlign=middle;whiteSpace=wrap;rounded=0;" vertex="1" parent="1">
          <mxGeometry x="681.75" y="196" width="99" height="30" as="geometry" />
        </mxCell>
        <mxCell id="GrUjXysrTz4pMU6UMyg--55" value="" style="sketch=0;outlineConnect=0;fontColor=#232F3E;gradientColor=none;fillColor=#4D27AA;strokeColor=none;dashed=0;verticalLabelPosition=bottom;verticalAlign=top;align=center;html=1;fontSize=12;fontStyle=0;aspect=fixed;pointerEvents=1;shape=mxgraph.aws4.nat_gateway;" vertex="1" parent="1">
          <mxGeometry x="694.5" y="518" width="64" height="64" as="geometry" />
        </mxCell>
        <mxCell id="GrUjXysrTz4pMU6UMyg--56" value="" style="endArrow=none;html=1;rounded=0;" edge="1" parent="1">
          <mxGeometry width="50" height="50" relative="1" as="geometry">
            <mxPoint x="643" y="549.37" as="sourcePoint" />
            <mxPoint x="700" y="549.37" as="targetPoint" />
          </mxGeometry>
        </mxCell>
        <mxCell id="GrUjXysrTz4pMU6UMyg--57" value="" style="endArrow=none;html=1;rounded=0;" edge="1" parent="1">
          <mxGeometry width="50" height="50" relative="1" as="geometry">
            <mxPoint x="757" y="549.38" as="sourcePoint" />
            <mxPoint x="814" y="549.38" as="targetPoint" />
          </mxGeometry>
        </mxCell>
        <mxCell id="GrUjXysrTz4pMU6UMyg--58" value="Nat Gateway" style="text;html=1;strokeColor=none;fillColor=none;align=center;verticalAlign=middle;whiteSpace=wrap;rounded=0;" vertex="1" parent="1">
          <mxGeometry x="685" y="582" width="99" height="30" as="geometry" />
        </mxCell>
        <mxCell id="GrUjXysrTz4pMU6UMyg--84" value="" style="endArrow=none;html=1;rounded=0;" edge="1" parent="1">
          <mxGeometry width="50" height="50" relative="1" as="geometry">
            <mxPoint x="350" y="777" as="sourcePoint" />
            <mxPoint x="1113" y="777" as="targetPoint" />
          </mxGeometry>
        </mxCell>
        <mxCell id="GrUjXysrTz4pMU6UMyg--79" value="" style="sketch=0;points=[[0,0,0],[0.25,0,0],[0.5,0,0],[0.75,0,0],[1,0,0],[0,1,0],[0.25,1,0],[0.5,1,0],[0.75,1,0],[1,1,0],[0,0.25,0],[0,0.5,0],[0,0.75,0],[1,0.25,0],[1,0.5,0],[1,0.75,0]];outlineConnect=0;fontColor=#232F3E;gradientColor=#F78E04;gradientDirection=north;fillColor=#D05C17;strokeColor=#ffffff;dashed=0;verticalLabelPosition=bottom;verticalAlign=top;align=center;html=1;fontSize=12;fontStyle=0;aspect=fixed;shape=mxgraph.aws4.resourceIcon;resIcon=mxgraph.aws4.eks;" vertex="1" parent="1">
          <mxGeometry x="696.5" y="735" width="64" height="64" as="geometry" />
        </mxCell>
        <mxCell id="GrUjXysrTz4pMU6UMyg--94" value="" style="edgeStyle=orthogonalEdgeStyle;html=1;endArrow=none;elbow=vertical;startArrow=block;startFill=1;strokeColor=#545B64;rounded=0;" edge="1" parent="1">
          <mxGeometry width="100" relative="1" as="geometry">
            <mxPoint x="462" y="707" as="sourcePoint" />
            <mxPoint x="462" y="775" as="targetPoint" />
          </mxGeometry>
        </mxCell>
        <mxCell id="GrUjXysrTz4pMU6UMyg--90" value="" style="edgeStyle=orthogonalEdgeStyle;html=1;endArrow=none;elbow=vertical;startArrow=block;startFill=1;strokeColor=#545B64;rounded=0;" edge="1" parent="1">
          <mxGeometry width="100" relative="1" as="geometry">
            <mxPoint x="1112.88" y="707" as="sourcePoint" />
            <mxPoint x="1112.88" y="775" as="targetPoint" />
          </mxGeometry>
        </mxCell>
        <mxCell id="GrUjXysrTz4pMU6UMyg--95" value="Amazon EKS" style="text;html=1;strokeColor=none;fillColor=none;align=center;verticalAlign=middle;whiteSpace=wrap;rounded=0;" vertex="1" parent="1">
          <mxGeometry x="679" y="804" width="99" height="30" as="geometry" />
        </mxCell>
        <mxCell id="GrUjXysrTz4pMU6UMyg--53" value="" style="rounded=1;arcSize=10;strokeColor=#F59D56;fillColor=none;gradientColor=none;strokeWidth=2;dashed=1;" vertex="1" parent="1">
          <mxGeometry x="285.5" y="420" width="882" height="84.5" as="geometry" />
        </mxCell>
        <mxCell id="GrUjXysrTz4pMU6UMyg--96" value="" style="rounded=1;arcSize=10;dashed=1;strokeColor=#ff0000;fillColor=none;gradientColor=none;dashPattern=8 4;strokeWidth=2;" vertex="1" parent="1">
          <mxGeometry x="308" y="245" width="315" height="161" as="geometry" />
        </mxCell>
        <mxCell id="GrUjXysrTz4pMU6UMyg--97" value="" style="rounded=1;arcSize=10;dashed=1;strokeColor=#ff0000;fillColor=none;gradientColor=none;dashPattern=8 4;strokeWidth=2;" vertex="1" parent="1">
          <mxGeometry x="819" y="245" width="315" height="161" as="geometry" />
        </mxCell>
        <mxCell id="GrUjXysrTz4pMU6UMyg--98" value="" style="outlineConnect=0;dashed=0;verticalLabelPosition=bottom;verticalAlign=top;align=center;html=1;shape=mxgraph.aws3.ec2;fillColor=#F58534;gradientColor=none;" vertex="1" parent="1">
          <mxGeometry x="343" y="273" width="76.5" height="93" as="geometry" />
        </mxCell>
        <mxCell id="GrUjXysrTz4pMU6UMyg--99" value="" style="outlineConnect=0;dashed=0;verticalLabelPosition=bottom;verticalAlign=top;align=center;html=1;shape=mxgraph.aws3.ec2;fillColor=#F58534;gradientColor=none;" vertex="1" parent="1">
          <mxGeometry x="848.25" y="273" width="76.5" height="93" as="geometry" />
        </mxCell>
        <mxCell id="GrUjXysrTz4pMU6UMyg--101" value="" style="outlineConnect=0;dashed=0;verticalLabelPosition=bottom;verticalAlign=top;align=center;html=1;shape=mxgraph.aws3.elastic_network_interface;fillColor=#F58534;gradientColor=none;" vertex="1" parent="1">
          <mxGeometry x="516" y="283.5" width="69" height="72" as="geometry" />
        </mxCell>
        <mxCell id="GrUjXysrTz4pMU6UMyg--102" value="" style="outlineConnect=0;dashed=0;verticalLabelPosition=bottom;verticalAlign=top;align=center;html=1;shape=mxgraph.aws3.elastic_network_interface;fillColor=#F58534;gradientColor=none;" vertex="1" parent="1">
          <mxGeometry x="1029" y="283.5" width="69" height="72" as="geometry" />
        </mxCell>
        <mxCell id="GrUjXysrTz4pMU6UMyg--103" value="192.168.96.51" style="text;html=1;strokeColor=none;fillColor=none;align=center;verticalAlign=middle;whiteSpace=wrap;rounded=0;" vertex="1" parent="1">
          <mxGeometry x="1038" y="350" width="60" height="30" as="geometry" />
        </mxCell>
        <mxCell id="GrUjXysrTz4pMU6UMyg--104" value="192.168.64.50" style="text;html=1;strokeColor=none;fillColor=none;align=center;verticalAlign=middle;whiteSpace=wrap;rounded=0;" vertex="1" parent="1">
          <mxGeometry x="520.5" y="350" width="60" height="30" as="geometry" />
        </mxCell>
        <mxCell id="GrUjXysrTz4pMU6UMyg--105" value="Network Interface" style="text;html=1;strokeColor=none;fillColor=none;align=center;verticalAlign=middle;whiteSpace=wrap;rounded=0;" vertex="1" parent="1">
          <mxGeometry x="506.25" y="257" width="97.5" height="30" as="geometry" />
        </mxCell>
        <mxCell id="GrUjXysrTz4pMU6UMyg--106" value="Network Interface" style="text;html=1;strokeColor=none;fillColor=none;align=center;verticalAlign=middle;whiteSpace=wrap;rounded=0;" vertex="1" parent="1">
          <mxGeometry x="1014.75" y="259" width="97.5" height="30" as="geometry" />
        </mxCell>
        <mxCell id="GrUjXysrTz4pMU6UMyg--107" value="192.168.0.0/19" style="text;html=1;strokeColor=none;fillColor=none;align=center;verticalAlign=middle;whiteSpace=wrap;rounded=0;" vertex="1" parent="1">
          <mxGeometry x="320" y="539" width="60" height="30" as="geometry" />
        </mxCell>
        <mxCell id="GrUjXysrTz4pMU6UMyg--108" value="192.168.64.0/19" style="text;html=1;strokeColor=none;fillColor=none;align=center;verticalAlign=middle;whiteSpace=wrap;rounded=0;movable=1;resizable=1;rotatable=1;deletable=1;editable=1;locked=0;connectable=1;" vertex="1" parent="1">
          <mxGeometry x="325" y="210" width="60" height="30" as="geometry" />
        </mxCell>
        <mxCell id="GrUjXysrTz4pMU6UMyg--109" value="192.168.32.0/19" style="text;html=1;strokeColor=none;fillColor=none;align=center;verticalAlign=middle;whiteSpace=wrap;rounded=0;movable=1;resizable=1;rotatable=1;deletable=1;editable=1;locked=0;connectable=1;" vertex="1" parent="1">
          <mxGeometry x="856.5" y="535" width="60" height="30" as="geometry" />
        </mxCell>
        <mxCell id="GrUjXysrTz4pMU6UMyg--110" value="" style="edgeStyle=orthogonalEdgeStyle;html=1;endArrow=none;elbow=vertical;startArrow=open;startFill=0;strokeColor=#545B64;rounded=0;" edge="1" parent="1">
          <mxGeometry width="100" relative="1" as="geometry">
            <mxPoint x="420" y="319" as="sourcePoint" />
            <mxPoint x="515.5" y="319.05" as="targetPoint" />
          </mxGeometry>
        </mxCell>
        <mxCell id="GrUjXysrTz4pMU6UMyg--111" value="" style="edgeStyle=orthogonalEdgeStyle;html=1;endArrow=none;elbow=vertical;startArrow=open;startFill=0;strokeColor=#545B64;rounded=0;" edge="1" parent="1">
          <mxGeometry width="100" relative="1" as="geometry">
            <mxPoint x="924" y="319" as="sourcePoint" />
            <mxPoint x="1029" y="319.05" as="targetPoint" />
          </mxGeometry>
        </mxCell>
        <mxCell id="GrUjXysrTz4pMU6UMyg--112" value="Jenkins" style="text;html=1;strokeColor=none;fillColor=none;align=center;verticalAlign=middle;whiteSpace=wrap;rounded=0;" vertex="1" parent="1">
          <mxGeometry x="351.25" y="252" width="60" height="30" as="geometry" />
        </mxCell>
        <mxCell id="GrUjXysrTz4pMU6UMyg--113" value="Ansible" style="text;html=1;strokeColor=none;fillColor=none;align=center;verticalAlign=middle;whiteSpace=wrap;rounded=0;" vertex="1" parent="1">
          <mxGeometry x="856.5" y="252" width="60" height="30" as="geometry" />
        </mxCell>
        <mxCell id="GrUjXysrTz4pMU6UMyg--61" value="" style="sketch=0;html=1;dashed=0;whitespace=wrap;fillColor=#2875E2;strokeColor=#ffffff;points=[[0.005,0.63,0],[0.1,0.2,0],[0.9,0.2,0],[0.5,0,0],[0.995,0.63,0],[0.72,0.99,0],[0.5,1,0],[0.28,0.99,0]];verticalLabelPosition=bottom;align=center;verticalAlign=top;shape=mxgraph.kubernetes.icon;prIcon=node" vertex="1" parent="1">
          <mxGeometry x="315" y="623" width="70" height="91" as="geometry" />
        </mxCell>
        <mxCell id="GrUjXysrTz4pMU6UMyg--59" value="Auto Scaling group" style="points=[[0,0],[0.25,0],[0.5,0],[0.75,0],[1,0],[1,0.25],[1,0.5],[1,0.75],[1,1],[0.75,1],[0.5,1],[0.25,1],[0,1],[0,0.75],[0,0.5],[0,0.25]];outlineConnect=0;gradientColor=none;html=1;whiteSpace=wrap;fontSize=12;fontStyle=0;container=1;pointerEvents=0;collapsible=0;recursiveResize=0;shape=mxgraph.aws4.groupCenter;grIcon=mxgraph.aws4.group_auto_scaling_group;grStroke=1;strokeColor=#D86613;fillColor=none;verticalAlign=top;align=center;fontColor=#D86613;dashed=1;spacingTop=25;" vertex="1" parent="1">
          <mxGeometry x="294" y="616" width="868" height="119" as="geometry" />
        </mxCell>
        <mxCell id="GrUjXysrTz4pMU6UMyg--66" value="" style="sketch=0;html=1;dashed=0;whitespace=wrap;fillColor=#2875E2;strokeColor=#ffffff;points=[[0.005,0.63,0],[0.1,0.2,0],[0.9,0.2,0],[0.5,0,0],[0.995,0.63,0],[0.72,0.99,0],[0.5,1,0],[0.28,0.99,0]];verticalLabelPosition=bottom;align=center;verticalAlign=top;shape=mxgraph.kubernetes.icon;prIcon=node" vertex="1" parent="GrUjXysrTz4pMU6UMyg--59">
          <mxGeometry x="238" y="7" width="71" height="91" as="geometry" />
        </mxCell>
        <mxCell id="GrUjXysrTz4pMU6UMyg--67" value="" style="sketch=0;html=1;dashed=0;whitespace=wrap;fillColor=#2875E2;strokeColor=#ffffff;points=[[0.005,0.63,0],[0.1,0.2,0],[0.9,0.2,0],[0.5,0,0],[0.995,0.63,0],[0.72,0.99,0],[0.5,1,0],[0.28,0.99,0]];verticalLabelPosition=bottom;align=center;verticalAlign=top;shape=mxgraph.kubernetes.icon;prIcon=node" vertex="1" parent="GrUjXysrTz4pMU6UMyg--59">
          <mxGeometry x="784" y="7" width="71" height="91" as="geometry" />
        </mxCell>
        <mxCell id="GrUjXysrTz4pMU6UMyg--69" value="" style="sketch=0;html=1;dashed=0;whitespace=wrap;fillColor=#2875E2;strokeColor=#ffffff;points=[[0.005,0.63,0],[0.1,0.2,0],[0.9,0.2,0],[0.5,0,0],[0.995,0.63,0],[0.72,0.99,0],[0.5,1,0],[0.28,0.99,0]];verticalLabelPosition=bottom;align=center;verticalAlign=top;shape=mxgraph.kubernetes.icon;prIcon=node" vertex="1" parent="GrUjXysrTz4pMU6UMyg--59">
          <mxGeometry x="567" y="7" width="71" height="91" as="geometry" />
        </mxCell>
        <mxCell id="GrUjXysrTz4pMU6UMyg--68" value="" style="sketch=0;html=1;dashed=0;whitespace=wrap;fillColor=#2875E2;strokeColor=#ffffff;points=[[0.005,0.63,0],[0.1,0.2,0],[0.9,0.2,0],[0.5,0,0],[0.995,0.63,0],[0.72,0.99,0],[0.5,1,0],[0.28,0.99,0]];verticalLabelPosition=bottom;align=center;verticalAlign=top;shape=mxgraph.kubernetes.icon;prIcon=node" vertex="1" parent="GrUjXysrTz4pMU6UMyg--59">
          <mxGeometry x="665" y="7" width="71" height="91" as="geometry" />
        </mxCell>
        <mxCell id="GrUjXysrTz4pMU6UMyg--77" value="node" style="text;html=1;align=center;verticalAlign=middle;whiteSpace=wrap;rounded=0;fontColor=#fafafa;labelBorderColor=none;" vertex="1" parent="GrUjXysrTz4pMU6UMyg--59">
          <mxGeometry x="131" y="63" width="60" height="30" as="geometry" />
        </mxCell>
        <mxCell id="GrUjXysrTz4pMU6UMyg--76" value="node" style="text;html=1;align=center;verticalAlign=middle;whiteSpace=wrap;rounded=0;fontColor=#fafafa;labelBorderColor=none;" vertex="1" parent="GrUjXysrTz4pMU6UMyg--59">
          <mxGeometry x="243.5" y="63" width="60" height="30" as="geometry" />
        </mxCell>
        <mxCell id="GrUjXysrTz4pMU6UMyg--75" value="node" style="text;html=1;align=center;verticalAlign=middle;whiteSpace=wrap;rounded=0;fontColor=#fafafa;labelBorderColor=none;" vertex="1" parent="GrUjXysrTz4pMU6UMyg--59">
          <mxGeometry x="572.5" y="63" width="60" height="30" as="geometry" />
        </mxCell>
        <mxCell id="GrUjXysrTz4pMU6UMyg--74" value="node" style="text;html=1;align=center;verticalAlign=middle;whiteSpace=wrap;rounded=0;fontColor=#fafafa;labelBorderColor=none;" vertex="1" parent="GrUjXysrTz4pMU6UMyg--59">
          <mxGeometry x="670.5" y="63" width="60" height="30" as="geometry" />
        </mxCell>
        <mxCell id="GrUjXysrTz4pMU6UMyg--73" value="node" style="text;html=1;align=center;verticalAlign=middle;whiteSpace=wrap;rounded=0;fontColor=#fafafa;labelBorderColor=none;" vertex="1" parent="GrUjXysrTz4pMU6UMyg--59">
          <mxGeometry x="789.5" y="63" width="60" height="30" as="geometry" />
        </mxCell>
        <mxCell id="GrUjXysrTz4pMU6UMyg--93" value="" style="edgeStyle=orthogonalEdgeStyle;html=1;endArrow=none;elbow=vertical;startArrow=block;startFill=1;strokeColor=#545B64;rounded=0;" edge="1" parent="GrUjXysrTz4pMU6UMyg--59">
          <mxGeometry width="100" relative="1" as="geometry">
            <mxPoint x="280" y="93" as="sourcePoint" />
            <mxPoint x="280" y="161" as="targetPoint" />
          </mxGeometry>
        </mxCell>
        <mxCell id="GrUjXysrTz4pMU6UMyg--92" value="" style="edgeStyle=orthogonalEdgeStyle;html=1;endArrow=none;elbow=vertical;startArrow=block;startFill=1;strokeColor=#545B64;rounded=0;" edge="1" parent="GrUjXysrTz4pMU6UMyg--59">
          <mxGeometry width="100" relative="1" as="geometry">
            <mxPoint x="601.88" y="93" as="sourcePoint" />
            <mxPoint x="601.88" y="161" as="targetPoint" />
          </mxGeometry>
        </mxCell>
        <mxCell id="GrUjXysrTz4pMU6UMyg--91" value="" style="edgeStyle=orthogonalEdgeStyle;html=1;endArrow=none;elbow=vertical;startArrow=block;startFill=1;strokeColor=#545B64;rounded=0;" edge="1" parent="GrUjXysrTz4pMU6UMyg--59">
          <mxGeometry width="100" relative="1" as="geometry">
            <mxPoint x="707" y="93" as="sourcePoint" />
            <mxPoint x="707" y="161" as="targetPoint" />
          </mxGeometry>
        </mxCell>
        <mxCell id="GrUjXysrTz4pMU6UMyg--65" value="" style="sketch=0;html=1;dashed=0;whitespace=wrap;fillColor=#2875E2;strokeColor=#ffffff;points=[[0.005,0.63,0],[0.1,0.2,0],[0.9,0.2,0],[0.5,0,0],[0.995,0.63,0],[0.72,0.99,0],[0.5,1,0],[0.28,0.99,0]];verticalLabelPosition=bottom;align=center;verticalAlign=top;shape=mxgraph.kubernetes.icon;prIcon=node" vertex="1" parent="GrUjXysrTz4pMU6UMyg--59">
          <mxGeometry x="126" y="7" width="70" height="91.5" as="geometry" />
        </mxCell>
        <mxCell id="GrUjXysrTz4pMU6UMyg--86" value="" style="edgeStyle=orthogonalEdgeStyle;html=1;endArrow=none;elbow=vertical;startArrow=block;startFill=1;strokeColor=#545B64;rounded=0;" edge="1" parent="1">
          <mxGeometry width="100" relative="1" as="geometry">
            <mxPoint x="350" y="709" as="sourcePoint" />
            <mxPoint x="350" y="777" as="targetPoint" />
          </mxGeometry>
        </mxCell>
        <mxCell id="GrUjXysrTz4pMU6UMyg--126" value="" style="edgeStyle=orthogonalEdgeStyle;html=1;endArrow=none;elbow=vertical;startArrow=block;startFill=1;strokeColor=#545B64;rounded=0;" edge="1" parent="1" source="GrUjXysrTz4pMU6UMyg--99">
          <mxGeometry width="100" relative="1" as="geometry">
            <mxPoint x="1162" y="309.07" as="sourcePoint" />
            <mxPoint x="1262" y="309.07" as="targetPoint" />
            <Array as="points">
              <mxPoint x="1064" y="294" />
              <mxPoint x="1064" y="309" />
            </Array>
          </mxGeometry>
        </mxCell>
        <mxCell id="GrUjXysrTz4pMU6UMyg--140" value="" style="edgeStyle=orthogonalEdgeStyle;html=1;endArrow=openThin;elbow=vertical;startArrow=none;endFill=0;strokeColor=#545B64;rounded=0;exitX=0.75;exitY=1;exitDx=0;exitDy=0;" edge="1" parent="1" source="GrUjXysrTz4pMU6UMyg--113" target="GrUjXysrTz4pMU6UMyg--136">
          <mxGeometry width="100" relative="1" as="geometry">
            <mxPoint x="903" y="282" as="sourcePoint" />
            <mxPoint x="961" y="83.1" as="targetPoint" />
            <Array as="points">
              <mxPoint x="901" y="280" />
              <mxPoint x="952" y="280" />
              <mxPoint x="952" y="84" />
            </Array>
          </mxGeometry>
        </mxCell>
        <mxCell id="GrUjXysrTz4pMU6UMyg--143" value="" style="edgeStyle=orthogonalEdgeStyle;html=1;endArrow=block;elbow=vertical;startArrow=block;startFill=1;endFill=1;strokeColor=#545B64;rounded=0;entryX=0.5;entryY=1;entryDx=0;entryDy=0;entryPerimeter=0;" edge="1" parent="1" source="GrUjXysrTz4pMU6UMyg--98" target="GrUjXysrTz4pMU6UMyg--99">
          <mxGeometry width="100" relative="1" as="geometry">
            <mxPoint x="378" y="380" as="sourcePoint" />
            <mxPoint x="478" y="380" as="targetPoint" />
            <Array as="points">
              <mxPoint x="381" y="380" />
              <mxPoint x="887" y="380" />
            </Array>
          </mxGeometry>
        </mxCell>
        <mxCell id="GrUjXysrTz4pMU6UMyg--147" value="" style="outlineConnect=0;dashed=0;verticalLabelPosition=bottom;verticalAlign=top;align=center;html=1;shape=mxgraph.aws3.router;fillColor=#F58536;gradientColor=none;" vertex="1" parent="1">
          <mxGeometry x="708.88" y="320.5" width="38.25" height="35" as="geometry" />
        </mxCell>
        <mxCell id="GrUjXysrTz4pMU6UMyg--149" value="" style="edgeStyle=orthogonalEdgeStyle;html=1;endArrow=block;elbow=vertical;startArrow=none;endFill=1;strokeColor=#545B64;rounded=0;" edge="1" parent="1">
          <mxGeometry width="100" relative="1" as="geometry">
            <mxPoint x="730" y="378" as="sourcePoint" />
            <mxPoint x="730" y="357" as="targetPoint" />
          </mxGeometry>
        </mxCell>
        <mxCell id="GrUjXysrTz4pMU6UMyg--151" value="" style="edgeStyle=orthogonalEdgeStyle;html=1;endArrow=block;elbow=vertical;startArrow=block;startFill=1;endFill=1;strokeColor=#545B64;rounded=0;" edge="1" parent="1" source="GrUjXysrTz4pMU6UMyg--147">
          <mxGeometry width="100" relative="1" as="geometry">
            <mxPoint x="630" y="287" as="sourcePoint" />
            <mxPoint x="728" y="280" as="targetPoint" />
          </mxGeometry>
        </mxCell>
      </root>
    </mxGraphModel>
  </diagram>
</mxfile>
